<svg width="48" height="626" viewBox="0 0 48 626" fill="none" xmlns="http://www.w3.org/2000/svg">
<g clip-path="url(#clip0_1_1478)">
<rect width="588" height="4.99997" transform="translate(27 11) rotate(90)" fill="#F5F5F6"/>
<g filter="url(#filter0_f_1_1478)">
<rect x="29" y="-18" width="38" height="9" transform="rotate(90 29 -18)" fill="#992E9D"/>
</g>
</g>
<path d="M0 0L24 11.5L48 0V43L24 60L0 43V0Z" fill="#992E9D"/>
<path d="M20.7802 25.58V22.4H26.3202V37H22.7602V25.58H20.7802Z" fill="white"/>
<path d="M0 283L24 294.5L48 283V326L24 343L0 326V283Z" fill="#992E9D"/>
<path d="M19.0671 317.26C19.5204 316.9 19.7271 316.733 19.6871 316.76C20.9938 315.68 22.0204 314.793 22.7671 314.1C23.5271 313.407 24.1671 312.68 24.6871 311.92C25.2071 311.16 25.4671 310.42 25.4671 309.7C25.4671 309.153 25.3404 308.727 25.0871 308.42C24.8338 308.113 24.4538 307.96 23.9471 307.96C23.4404 307.96 23.0404 308.153 22.7471 308.54C22.4671 308.913 22.3271 309.447 22.3271 310.14H19.0271C19.0538 309.007 19.2938 308.06 19.7471 307.3C20.2138 306.54 20.8204 305.98 21.5671 305.62C22.3271 305.26 23.1671 305.08 24.0871 305.08C25.6738 305.08 26.8671 305.487 27.6671 306.3C28.4804 307.113 28.8871 308.173 28.8871 309.48C28.8871 310.907 28.4004 312.233 27.4271 313.46C26.4538 314.673 25.2138 315.86 23.7071 317.02H29.1071V319.8H19.0671V317.26Z" fill="white"/>
<path d="M0 566L24 577.5L48 566V609L24 626L0 609V566Z" fill="#992E9D"/>
<path d="M19.4653 592.52C19.5186 591.093 19.9853 589.993 20.8653 589.22C21.7453 588.447 22.9386 588.06 24.4453 588.06C25.4453 588.06 26.2986 588.233 27.0053 588.58C27.7253 588.927 28.2653 589.4 28.6253 590C28.9986 590.6 29.1853 591.273 29.1853 592.02C29.1853 592.9 28.9653 593.62 28.5253 594.18C28.0853 594.727 27.572 595.1 26.9853 595.3V595.38C27.7453 595.633 28.3453 596.053 28.7853 596.64C29.2253 597.227 29.4453 597.98 29.4453 598.9C29.4453 599.727 29.252 600.46 28.8653 601.1C28.492 601.727 27.9386 602.22 27.2053 602.58C26.4853 602.94 25.6253 603.12 24.6253 603.12C23.0253 603.12 21.7453 602.727 20.7853 601.94C19.8386 601.153 19.3386 599.967 19.2853 598.38H22.6053C22.6186 598.967 22.7853 599.433 23.1053 599.78C23.4253 600.113 23.892 600.28 24.5053 600.28C25.0253 600.28 25.4253 600.133 25.7053 599.84C25.9986 599.533 26.1453 599.133 26.1453 598.64C26.1453 598 25.9386 597.54 25.5253 597.26C25.1253 596.967 24.4786 596.82 23.5853 596.82H22.9453V594.04H23.5853C24.2653 594.04 24.812 593.927 25.2253 593.7C25.652 593.46 25.8653 593.04 25.8653 592.44C25.8653 591.96 25.732 591.587 25.4653 591.32C25.1986 591.053 24.832 590.92 24.3653 590.92C23.8586 590.92 23.4786 591.073 23.2253 591.38C22.9853 591.687 22.8453 592.067 22.8053 592.52H19.4653Z" fill="white"/>
<defs>
<filter id="filter0_f_1_1478" x="10" y="-28" width="29" height="58" filterUnits="userSpaceOnUse" color-interpolation-filters="sRGB">
<feFlood flood-opacity="0" result="BackgroundImageFix"/>
<feBlend mode="normal" in="SourceGraphic" in2="BackgroundImageFix" result="shape"/>
<feGaussianBlur stdDeviation="5" result="effect1_foregroundBlur_1_1478"/>
</filter>
<clipPath id="clip0_1_1478">
<rect width="588" height="4.99997" fill="white" transform="translate(27 11) rotate(90)"/>
</clipPath>
</defs>
</svg>
